<?xml version="1.0" encoding="UTF-8"?>
<svg version="1.1" xmlns="http://www.w3.org/2000/svg" width="288" height="288">
<path d="M0 0 C-1.62506912 2.13290322 -3.25014417 4.26580192 -4.87524414 6.39868164 C-6.31202807 8.28451213 -7.74871155 10.17041916 -9.18530273 12.05639648 C-12.82046566 16.82841131 -16.45688597 21.599449 -20.09765625 26.3671875 C-26.64553526 34.94550383 -33.1658957 43.5420954 -39.625 52.1875 C-44.9787129 59.35171832 -50.42337815 66.43718854 -55.93310547 73.48193359 C-60.27676747 79.04443628 -64.53037296 84.66879224 -68.75170898 90.32446289 C-72.51902804 95.36949808 -76.34493334 100.3665336 -80.19140625 105.3515625 C-89.09064399 116.89669636 -97.90064052 128.50977145 -106.625 140.1875 C-111.97650661 147.3487863 -117.41848832 154.43171832 -122.92651367 161.47314453 C-127.30076843 167.07413446 -131.59063916 172.73342977 -135.83081055 178.43652344 C-139.48748888 183.3490507 -143.23696164 188.16180783 -147 193 C-119.61 193.33 -92.22 193.66 -64 194 C-65.84454158 198.61135395 -67.32642082 200.84435816 -70.5 204.5 C-74.09911916 208.70737489 -77.58348155 212.96949139 -80.9375 217.375 C-84.59507963 222.16973049 -88.27871669 226.94195967 -92 231.6875 C-92.70370728 232.58831299 -92.70370728 232.58831299 -93.42163086 233.50732422 C-95.20279183 235.77592292 -96.95843956 237.95843956 -99 240 C-101.53134832 240.1232408 -103.94826888 240.12325901 -106.47436523 240.03320312 C-108.07904255 239.99404197 -109.68373396 239.95545544 -111.28843689 239.9173584 C-112.14475142 239.89396896 -113.00106594 239.87057953 -113.88332939 239.84648132 C-118.48214278 239.73434785 -123.08177249 239.69842238 -127.68164062 239.65234375 C-133.50790487 239.59332619 -139.32990364 239.51386974 -145.15356445 239.32470703 C-172.57139252 238.46960604 -191.82306796 242.13008473 -215.21603394 256.70610046 C-221.30682488 260.46650825 -227.73575131 263.59791908 -234.125 266.8125 C-240.58810605 270.12864172 -247.03460114 273.47626382 -253.44485474 276.89347839 C-255.21416471 277.83637156 -256.98572303 278.77504191 -258.75732422 279.71362305 C-260.95094694 280.87722588 -263.14032539 282.04887688 -265.32470703 283.22973633 C-266.29263184 283.74173584 -267.26055664 284.25373535 -268.2578125 284.78125 C-269.52842529 285.4628418 -269.52842529 285.4628418 -270.82470703 286.15820312 C-273 287 -273 287 -276 286 C-275.36723145 285.17145508 -275.36723145 285.17145508 -274.72167969 284.32617188 C-267.30344488 274.60961255 -259.89359282 264.88811402 -252.57666016 255.0949707 C-248.46299473 249.59746768 -244.29535282 244.14206772 -240.125 238.6875 C-234.97175903 231.94549588 -229.88571521 225.16104315 -224.875 218.3125 C-219.79262035 211.36753963 -214.56982917 204.55060646 -209.25830078 197.77978516 C-204.36893864 191.52594986 -199.65468592 185.15334545 -194.96435547 178.74951172 C-190.54653864 172.72295912 -186.02715401 166.78923144 -181.45214844 160.88085938 C-172.54870211 149.34889056 -163.76586316 137.73345595 -155.16479492 125.97436523 C-150.52587226 119.65627858 -145.74417062 113.45822657 -140.88037109 107.31176758 C-136.69070385 101.99072667 -132.90308964 96.57584234 -129 91 C-170.085 90.505 -170.085 90.505 -212 90 C-210.17728946 85.44322366 -208.81754521 83.33597651 -205.6875 79.75 C-200.89227197 74.1650534 -196.40827937 68.38147975 -191.99487305 62.49121094 C-190.97995973 61.14621943 -189.94662325 59.81492833 -188.89518738 58.49829102 C-186.91543604 55.96734974 -186.91543604 55.96734974 -185.10244751 52.95782471 C-181.64022317 47.92082364 -179.25538213 44.54429779 -173.14971924 43.07080078 C-169.30736082 42.81418079 -165.50003552 43.00337527 -161.66265106 43.27614212 C-159.05162081 43.45768377 -156.44812765 43.55825592 -153.83209229 43.63754272 C-150.10525577 43.75215724 -146.3802954 43.88815764 -142.65484619 44.0413208 C-107.71376836 45.38628663 -81.2176209 43.54223164 -51.37112427 23.70257568 C-42.61093551 17.88847876 -33.19504182 13.62911718 -23.66088867 9.25219727 C-18.53270596 6.83890713 -13.50909688 4.21658484 -8.50509644 1.55673218 C-3.32669349 -1.10889783 -3.32669349 -1.10889783 0 0 Z " fill="#F7A41C" transform="translate(281,1)"/>
<path d="M0 0 C7.92 0 15.84 0 24 0 C24 64.68 24 129.36 24 196 C-5.37 196 -34.74 196 -65 196 C-63.12626469 192.25252938 -61.12802305 189.41707918 -58.5625 186.125 C-58.12220459 185.55837646 -57.68190918 184.99175293 -57.22827148 184.40795898 C-55.82289284 182.60210567 -54.41213716 180.80057186 -53 179 C-52.54882812 178.42362793 -52.09765625 177.84725586 -51.6328125 177.25341797 C-48.90653808 173.77170552 -46.17221623 170.29640179 -43.43505859 166.82324219 C-41.91903995 164.89714024 -40.4064088 162.96841638 -38.89453125 161.0390625 C-38.38913818 160.39445068 -37.88374512 159.74983887 -37.36303711 159.08569336 C-36.38813455 157.84207279 -35.4136715 156.59810752 -34.43969727 155.35375977 C-31.11209205 151.11209205 -31.11209205 151.11209205 -30 150 C-26.37 150 -22.74 150 -19 150 C-19 116.34 -19 82.68 -19 48 C-24.28 48 -29.56 48 -35 48 C-33.47694125 44.19235313 -32.64045963 42.2414333 -30.234375 39.2421875 C-29.68064209 38.54319336 -29.12690918 37.84419922 -28.55639648 37.12402344 C-27.96028564 36.3818457 -27.3641748 35.63966797 -26.75 34.875 C-20.90328764 27.48919624 -15.24637618 19.99016195 -9.70800781 12.37060547 C-9.16370117 11.62439941 -8.61939453 10.87819336 -8.05859375 10.109375 C-7.58736084 9.45936523 -7.11612793 8.80935547 -6.63061523 8.13964844 C-4.50942795 5.35628485 -2.24032971 2.68839565 0 0 Z " fill="#F7A41C" transform="translate(263,45)"/>
<path d="M0 0 C28.71 0 57.42 0 87 0 C80.25392297 10.11911555 80.25392297 10.11911555 77.3359375 13.91015625 C76.69487061 14.74780518 76.05380371 15.5854541 75.39331055 16.44848633 C74.01392508 18.23499657 72.63248189 20.01991941 71.24926758 21.8034668 C67.92865765 26.10123833 64.6821617 30.39709265 61.67578125 34.921875 C61.1667627 35.66687256 60.65774414 36.41187012 60.13330078 37.17944336 C59.19864345 38.55838647 58.29222544 39.9570887 57.42138672 41.37719727 C56.13671875 43.23828125 56.13671875 43.23828125 53 46 C49.37 46 45.74 46 42 46 C42 80.32 42 114.64 42 150 C47.28 150 52.56 150 58 150 C55.7522942 155.6192645 55.7522942 155.6192645 53.41796875 158.390625 C52.64767334 159.31875 52.64767334 159.31875 51.86181641 160.265625 C51.30929199 160.92046875 50.75676758 161.5753125 50.1875 162.25 C44.81146575 168.73086446 39.62803587 175.32486038 34.57885742 182.06347656 C30.90043308 186.93787995 27.04942426 191.37208656 23 196 C15.41 196 7.82 196 0 196 C0 131.32 0 66.64 0 0 Z " fill="#F7A41C" transform="translate(0,45)"/>
</svg>
